<?xml version="1.0" encoding="iso-8859-1"?>
<!-- Generator: Adobe Illustrator 19.0.0, SVG Export Plug-In . SVG Version: 6.00 Build 0)  -->
<svg version="1.1" id="Layer_1" xmlns="http://www.w3.org/2000/svg" xmlns:xlink="http://www.w3.org/1999/xlink" x="0px" y="0px"
	 viewBox="0 0 508 508" style="enable-background:new 0 0 508 508;" xml:space="preserve">
<circle style="fill:#90DFAA;" cx="254" cy="254" r="254"/>
<path style="fill:#2C9984;" d="M79.2,438c45.6,43.2,107.2,70,174.8,70s129.2-26.4,174.8-70H79.2z"/>
<path style="fill:#FFFFFF;" d="M326.8,437.6H177.2l0,0c0-14,11.6-25.6,25.6-25.6h98.8C315.2,412,326.8,423.6,326.8,437.6
	L326.8,437.6z"/>
<path style="fill:#324A5E;" d="M268.8,412h-33.6l6.8-238.8c3.2,0.8,6.4,1.2,10,1.2c3.2,0,6.8-0.4,10-1.2L268.8,412z"/>
<g>
	<circle style="fill:#FFFFFF;" cx="252" cy="135.2" r="39.2"/>
	<path style="fill:#FFFFFF;" d="M331.2,268.4c11.2,30.8,40,52.8,74,52.8s62.8-22,74-52.8H331.2z"/>
	<circle style="fill:#FFFFFF;" cx="405.2" cy="135.2" r="16"/>
</g>
<g>
	<path style="fill:#324A5E;" d="M92.8,147.2c1.6,1.2,3.6,2.4,5.6,2.8L36,268.4h-6.8L92.8,147.2z"/>
	<path style="fill:#324A5E;" d="M112.8,147.2l64,120.8H170l-62.4-118C109.6,149.6,111.2,148.8,112.8,147.2z"/>
	<path style="fill:#324A5E;" d="M213.6,126c-0.8,2.8-1.2,6-1.2,8.8c0,3.2,0.4,6,1.2,8.8l-96-3.2c0.8-2,1.2-4,1.2-6s-0.4-4-1.2-6
		L213.6,126z"/>
	<path style="fill:#324A5E;" d="M389.2,135.2c0,2,0.4,4,1.2,5.6L290,144c0.8-2.8,1.2-6,1.2-8.8c0-3.2-0.4-6-1.2-8.8l100.4,3.2
		C389.6,131.2,389.2,132.8,389.2,135.2z"/>
	<path style="fill:#324A5E;" d="M394.8,147.2c1.6,1.2,3.6,2.4,5.6,2.8L338,268.4h-6.8L394.8,147.2z"/>
	<path style="fill:#324A5E;" d="M478.8,268.4H472L409.6,150c2-0.4,4-1.6,5.6-2.8L478.8,268.4z"/>
</g>
<g>
	<path style="fill:#FFFFFF;" d="M28.8,268.4c11.2,30.8,40,52.8,74,52.8s62.8-22,74-52.8H28.8z"/>
	<circle style="fill:#FFFFFF;" cx="102.8" cy="135.2" r="16"/>
</g>
<g>
</g>
<g>
</g>
<g>
</g>
<g>
</g>
<g>
</g>
<g>
</g>
<g>
</g>
<g>
</g>
<g>
</g>
<g>
</g>
<g>
</g>
<g>
</g>
<g>
</g>
<g>
</g>
<g>
</g>
</svg>
