<?xml version="1.0" encoding="utf-8"?><svg width="485" height="326" fill="none" xmlns="http://www.w3.org/2000/svg" viewBox="0 0 485 326"><path d="M482.954 320.891a3.386 3.386 0 01-2.475-.049 3.183 3.183 0 01-1.029-.686 2.969 2.969 0 01-.662-1.006L421.84 180.222a2.914 2.914 0 01.038-2.34 3.22 3.22 0 011.778-1.648 3.38 3.38 0 012.475.05 3.19 3.19 0 011.028.686c.29.29.516.632.663 1.006l56.953 138.922a2.928 2.928 0 01-.042 2.344 3.226 3.226 0 01-1.779 1.649zM275.221 320.891a3.382 3.382 0 01-2.475-.049 3.179 3.179 0 01-1.028-.686 2.972 2.972 0 01-.663-1.006l-56.948-138.928a2.914 2.914 0 01.039-2.34 3.214 3.214 0 011.777-1.648 3.385 3.385 0 012.475.05c.388.162.738.395 1.028.686.291.29.516.632.663 1.006l56.954 138.922a2.92 2.92 0 01-.041 2.344 3.213 3.213 0 01-1.781 1.649zM304.806 316.63a2.26 2.26 0 01-.737-.45 2.105 2.105 0 01-.497-.68 1.988 1.988 0 01-.014-1.616l43.292-100.321c.11-.257.274-.491.481-.688.208-.198.455-.355.727-.463.272-.109.564-.166.86-.168.296-.002.589.05.864.153.274.104.524.257.735.451.211.194.379.425.495.68a1.997 1.997 0 01.015 1.613l-43.292 100.326a2.08 2.08 0 01-.481.687 2.25 2.25 0 01-.726.463 2.396 2.396 0 01-1.722.013z" fill="#A3D5FF"/><path d="M422.379 236.412h-93.757c-1.456-.002-2.851-.544-3.88-1.508-1.029-.963-1.607-2.27-1.607-3.632v-8.418c0-1.363.578-2.669 1.607-3.633s2.424-1.506 3.88-1.508h93.757c1.456.002 2.852.544 3.881 1.508s1.607 2.27 1.607 3.633v8.418c0 1.362-.578 2.669-1.607 3.632-1.029.964-2.425 1.506-3.881 1.508zM368.996 266.18h-37.602c-.259 0-.508-.097-.691-.268a.887.887 0 01-.287-.648v-1.504c0-.243.103-.476.287-.648.183-.171.432-.268.691-.268h37.602c.259.002.507.099.69.27a.89.89 0 01.288.646v1.504a.892.892 0 01-.284.649.992.992 0 01-.694.267z" fill="#A3D5FF"/><path d="M361.581 317.614a2.275 2.275 0 01-.736-.451 2.098 2.098 0 01-.495-.681 1.979 1.979 0 01-.012-1.615l40.891-94.786c.111-.257.274-.49.482-.688.207-.197.454-.355.726-.463a2.38 2.38 0 01.861-.167 2.37 2.37 0 01.863.153c.274.103.524.257.735.451.211.194.379.424.495.679a1.979 1.979 0 01.015 1.613l-40.89 94.787a2.117 2.117 0 01-.481.69 2.288 2.288 0 01-.727.465 2.39 2.39 0 01-1.727.013z" fill="#A3D5FF"/><path d="M447.534 317.614c.275-.103.526-.256.738-.45.212-.194.38-.425.496-.681.116-.255.177-.529.18-.806a1.988 1.988 0 00-.166-.81l-40.908-94.786a2.182 2.182 0 00-1.208-1.151 2.395 2.395 0 00-1.724-.014 2.19 2.19 0 00-1.23 1.13 1.984 1.984 0 00-.015 1.613l40.891 94.787c.11.258.274.494.482.693.208.199.456.358.73.466.274.109.569.166.866.167.298.002.593-.052.868-.158zM393.132 317.614c.276-.103.526-.256.738-.45.212-.194.381-.425.497-.681a1.98 1.98 0 00.014-1.616l-40.891-94.786a2.188 2.188 0 00-1.208-1.151 2.395 2.395 0 00-1.724-.014 2.187 2.187 0 00-1.23 1.13 1.984 1.984 0 00-.016 1.613l40.874 94.787c.11.258.274.494.482.693.208.199.457.358.731.466.274.109.568.166.866.167a2.37 2.37 0 00.867-.158z" fill="#A3D5FF"/><path d="M425.247 266.18h-40.165a.992.992 0 01-.694-.267.873.873 0 01-.284-.649v-1.504a.89.89 0 01.286-.648c.184-.171.432-.268.692-.268h40.165c.259.002.507.099.691.27a.893.893 0 01.288.646v1.504a.887.887 0 01-.287.648 1.015 1.015 0 01-.692.268z" fill="#A3D5FF"/><path d="M369.014 208.759s-12.408 6.15-53.682 21.234l-7.871 2.978c-3.716 1.4-8.135-2.262-10.086-8.36-1.985-6.187-.725-12.68 2.845-14.731l52.692-30.905c12.537-6.198 25.654 23.155 16.102 29.784z" fill="#002DA0"/><path d="M408.824 173.193l-7.955-18.109-24.913-.053h-.067l-14.253 11.27s3.003 10.186-2.136 12.022l.939 21.408 21.578 7.165 24.384-12.069c1.725-.709 3.171-1.903 4.137-3.416a8.055 8.055 0 001.255-5.028l-.349-3.352a32.95 32.95 0 00-2.62-9.838z" fill="#002DA0"/><path d="M316.534 326c35.263 0 63.847-.7 63.847-1.578 0-.879-28.584-1.579-63.847-1.579-35.263 0-63.846.7-63.846 1.579 0 .878 28.6 1.578 63.846 1.578z" fill="#88BCEB"/><path d="M332.962 305.902c-2.935-23.828-6.106-39.301-4.374-60.951a6.718 6.718 0 01.372-2.955 7.056 7.056 0 011.626-2.557 7.65 7.65 0 012.597-1.717 8.098 8.098 0 013.118-.579c4.352.063 7.068 3.552 8.254 7.629 5.493 18.893-2.007 45.015-1.687 65.686.051 2.957-2.311 1.237-4.773 1.2-2.637-.037-4.903-2.578-5.133-5.756z" fill="#8AA5FF"/><path d="M339.08 211.873c6.015-.152 8.219 21.571 8.759 27.485.877 9.633 2.007 24.054.799 35.398-1.125 10.269-2.12 17.162-2.502 22.281-.197 2.599 2.249 3.388-.04 6.608-4.498 2.157-9.558 2.026-15.084.384 0 0-5.156-46.567-5.353-50.813-.095-2.062-1.591-18.856-1.686-24.201-.107-6.019 1.186-12.401 10.901-17.168l4.206.026z" fill="#0048BE"/><path d="M405.811 216.283s-10.081 4.014-55.098 16.23l-8.608 2.426c-4.048 1.141-8.737-2.725-10.683-8.823-1.984-6.187-.455-12.475 3.469-14.242l66.934-35.856c14.955-3.83 14.488 34.356 3.986 40.265z" fill="#0048BE"/><path d="M298.999 305.902c-2.935-23.828-6.106-39.301-4.374-60.951a6.718 6.718 0 01.372-2.955 7.056 7.056 0 011.626-2.557 7.65 7.65 0 012.597-1.717 8.098 8.098 0 013.118-.579c4.352.063 7.068 3.552 8.254 7.629 5.493 18.893-2.007 45.015-1.687 65.686.051 2.957-2.31 1.237-4.773 1.2-2.637-.037-4.903-2.578-5.133-5.756z" fill="#8AA5FF"/><path d="M305.116 211.874c4.233-.106 3.266 11.664 7.787 19.04 2.063 3.362 1.838 5.261.759 6.229-.681.605.157 1.626.213 2.215.878 9.633 1.788 24.039.793 35.398-.944 10.811-3.626 18.94-2.063 23.528 1.563 4.588.714 5.982-.478 5.361-3.936 2.373-9.249 1.894-15.085.384 0 0-.219-1.989-.562-5.182-1.349-12.259-4.627-42.264-4.784-45.631-.096-2.062-1.592-18.856-1.687-24.201-.113-6.019.483-14.385 10.193-19.141l4.914 2z" fill="#002DA0"/><path d="M304.001 324.659h7.113c.562 0 1.045-.742 1.051-1.663.006-.921-.455-1.689-1.035-1.689h-7.112c-.562 0-1.046.737-1.051 1.663-.006.926.455 1.689 1.034 1.689z" fill="#4968CC"/><path d="M310.492 311.39v-1.2a1.216 1.216 0 00-.434-.86 1.387 1.387 0 00-.955-.324c-4.891 1.926-3.975-.526-7.64-2.557a3.142 3.142 0 00-1.569-.363 3.122 3.122 0 00-1.541.458c-2.906 1.81-10.918 9.823-15.298 10.459-4.104.59-7.045 1.105-7.354 1.384-1.945 1.768-1.214 4.893 1.653 5.014 8.377.347 17.547 1.273 24.598-.868l1.506-.463 8.664.773c.012-4.798.99-7.592-1.63-11.453z" fill="#002DA0"/><path d="M287.394 325.058c-4.964 0-8.557-1.089-11.413-1.768a1.844 1.844 0 01-.712-.27 1.73 1.73 0 01-.524-.526 1.596 1.596 0 01-.238-.684 1.549 1.549 0 01.091-.713l.062-.148c.084 0 8.36 2.341 15.208 2.199a50.335 50.335 0 0012.852-2.104l.214-.068 9.232.031-.045 1.915-8.743-.037a52.71 52.71 0 01-13.448 2.147l-2.536.026z" fill="#4968CC"/><path d="M289.756 313.473l.928.784a.989.989 0 001.214-.111.65.65 0 00.076-.81.716.716 0 00-.211-.21 59.01 59.01 0 00-.928-.784.976.976 0 00-.629-.156.962.962 0 00-.585.266.702.702 0 00-.148.252.65.65 0 00.074.558.7.7 0 00.209.211zM286.613 316.009l.821.694c.171.136.388.21.612.21a.985.985 0 00.613-.21.686.686 0 00.193-.236.653.653 0 000-.58.695.695 0 00-.193-.236l-.798-.668a.986.986 0 00-.61-.209.982.982 0 00-.61.209.658.658 0 00-.262.507.643.643 0 00.057.283c.04.089.101.17.177.236zM337.972 324.659h7.112c.562 0 1.046-.742 1.051-1.663.006-.921-.461-1.689-1.04-1.689h-7.106c-.563 0-1.052.737-1.057 1.663-.006.926.461 1.689 1.04 1.689z" fill="#4F71DD"/><path d="M344.455 311.39v-1.2a1.22 1.22 0 00-.434-.86 1.387 1.387 0 00-.955-.324c-4.891 1.926-3.975-.526-7.641-2.557a3.136 3.136 0 00-1.568-.363 3.122 3.122 0 00-1.541.458c-2.906 1.81-10.918 9.823-15.298 10.459-4.099.59-7.045 1.105-7.354 1.384-1.945 1.768-1.214 4.893 1.653 5.014 8.377.347 17.547 1.273 24.598-.868l1.506-.463 8.664.773c.017-4.798.99-7.592-1.63-11.453z" fill="#0048BE"/><path d="M321.364 325.058c-4.97 0-8.563-1.089-11.413-1.768a1.856 1.856 0 01-.712-.27 1.744 1.744 0 01-.525-.526 1.58 1.58 0 01-.152-1.397l.062-.148c.084 0 8.36 2.341 15.214 2.199a50.247 50.247 0 0012.847-2.104l.214-.068 9.237.031-.045 1.915-8.754-.01a52.663 52.663 0 01-13.443 2.146h-2.53zM323.719 313.473l.928.784a.998.998 0 001.22-.111.65.65 0 00.074-.81.709.709 0 00-.209-.21l-.928-.784a.976.976 0 00-.629-.156.962.962 0 00-.585.266.678.678 0 00-.177.538.678.678 0 00.306.483zM320.576 316.009l.821.694a.99.99 0 00.613.21.99.99 0 00.613-.21.683.683 0 00.261-.526c0-.1-.024-.199-.069-.29a.692.692 0 00-.192-.236l-.827-.694a.982.982 0 00-.61-.209.986.986 0 00-.61.209.686.686 0 00-.194.235.656.656 0 00-.07.291c.001.1.024.199.07.29a.689.689 0 00.194.236z" fill="#4F71DD"/><path d="M383.276 55.415s7.742 8.581 4.29 14.653c-3.452 6.071-4.92 12.227-9.136 9.675-4.217-2.552-4.729-29.463-4.729-29.463l9.575 5.135z" fill="#F70"/><path d="M298.494 172.041c13.414-6.245 28.555-10.917 35.949-15.936 1.759-1.195 1.996-3.746.511-5.74l-2.552-3.42c-1.254-1.684-3.486-2.268-5.015-1.315l-32.778 20.392c-1.271.815-1.473 3.415-.366 4.798 1.052 1.295 2.952 1.836 4.251 1.221z" fill="#FEB89E"/><path d="M343.763 104.345L324.35 146.75c-.737 1.578-.478 5.024 1.529 6.035l1.209.605c3.227 1.62 7.207.952 8.748-1.473l24.176-38.139s8.866-10.028-6.865-14.3c-5.167-1.394-9.384 4.867-9.384 4.867z" fill="#8AA5FF"/><path d="M406.407 120.644l-52.057-2.746c-6.46-.342-11.424-5.204-11.081-10.854l2.451.037c.337-5.651 2.659-8.908 9.862-9.655l23.118-8.328 28.944 11.075c7.596 2.02 11.419 5.198 11.081 10.853-.337 5.656-5.852 9.981-12.318 9.618z" fill="#8AA5FF"/><path d="M379.959 104.955l-1.276.163c-3.936.526-12.555-1.441-12.988-4.372 7.366-2.336 4.374-11.69 1.957-21.197-.439-2.968 2.417-5.788 6.336-6.314l1.276-.163c3.936-.526 6.68-4.703 7.118-1.736 1.558 8.865 5.943 25.317 11.357 30.894 2.125 2.183-9.856 2.22-13.78 2.725z" fill="#FEB89E"/><path d="M380.628 106.355v-.079l-2.092-.074-2.08-.147v.073l-30.546-1.052 7.079 52.16 52.124 7.018 10.12-55.516-34.605-2.383z" fill="#8AA5FF"/><path d="M412.885 121.602s-.905 37.502-1.057 39.959c-.152 2.457 1.389 11.806 0 13.2-1.389 1.394 2.136 6.698-.995 6.203-9.676-1.52-38.001 7.334-49.28 7.192-11.278-.142-10.536-17.362-10.536-17.362s-3.249-3.262-.995-5.971c2.255-2.71-1.057-6.735 1.018-9.044 2.074-2.31-5.122-32.925-5.122-32.925s-.264-21.455 3.66-23.87c3.924-2.415 21.544-5.588 21.544-5.588l18.093 4.21 5.442-3.12 18.228 27.116z" fill="#fff"/><path d="M369.385 150.68a.792.792 0 00.151.458c.098.135.236.24.398.302a.948.948 0 00.509.045.907.907 0 00.451-.228.78.78 0 00.188-.899.842.842 0 00-.325-.37.921.921 0 00-.49-.139.902.902 0 00-.626.244.82.82 0 00-.191.27.77.77 0 00-.065.317zM370.289 159.567a.935.935 0 00.496-.138.846.846 0 00.329-.373.784.784 0 00.052-.482.817.817 0 00-.243-.426.91.91 0 00-.456-.228.952.952 0 00-.515.048.88.88 0 00-.398.309.788.788 0 00-.081.78c.045.1.11.191.192.268a.91.91 0 00.624.242zM370.289 166.306a.935.935 0 00.496-.138.846.846 0 00.329-.373.78.78 0 00.052-.481.82.82 0 00-.243-.427.91.91 0 00-.456-.228.942.942 0 00-.515.049.877.877 0 00-.398.308.79.79 0 00.111 1.048.926.926 0 00.624.242z" fill="#D6ECFF"/><path d="M369.104 84.752s5.234-1.5 6.347-3.81c0 0-1.422 6.02-5.622 7.55l-.725-3.74z" fill="#F19776"/><path d="M373.454 93.901h2.423l4.059 5.262-4.452 5.55h-4.02l-2.761-6.176 4.751-4.636z" fill="#008FFF"/><path d="M375.428 104.203h-1.895c-.067.278-.118.568-.18.852v-.852h-1.889l-8.265 25.054 4.886 18.687 8.074-18.687-.731-25.054z" fill="#008FFF"/><path d="M369.699 88.145l-9.271 7.166 4.048 1.126 4.953 6.04 4.116-8.64s-4.161-.42-3.846-5.692zM386.971 88.156l8.911 6.982-4.234 1.294-10.007 6.434-6.112-8.944s11.751-.052 11.442-5.766z" fill="#F0F3FA"/><path d="M365.926 84.773c-3.564-2.036-8.113-7.176-8.512-12.795l-1.254-9.634c-.512-7.223 4.627-13.479 11.419-13.9l.68-.042c6.792-.42 12.768 5.145 13.274 12.37l.827 11.716c.399 5.666-7.309 9.502-10.491 11.917-.877.662-4.925.947-5.943.368z" fill="#FEB89E"/><path d="M352.28 58.925c-.91 3.251 3.244 5.545 5.926 3.309 1.26-1.052 2.75-1.715 3.998-2.489 7.269-4.508 15.433-1.052 14.865-3.493l-7.281-8.376s-6.409-3.962-12.689 2.494c-2.321 2.446-3.974 5.38-4.819 8.555z" fill="#F70"/><path d="M366.422 46.755s8.585-6.008 18.345.658c9.76 6.666 3.374 21.26 3.374 21.26s-12.842-3.561-13.415-9.79c-.574-6.23-9.699-8.945-9.699-8.945l1.395-3.183z" fill="#F70"/><path d="M386.117 68.721c.275-2.194-.697-4.098-2.182-4.267-1.484-.168-2.901 1.479-3.182 3.683-.281 2.204.697 4.104 2.176 4.267 1.479.163 2.907-1.494 3.188-3.683z" fill="#FEB89E"/><path d="M418.528 112.394c-2.311 16.336-7.872 36.334-17.008 48.646-.618 1.641-3.845 2.225-6.01 1.631l-1.304-.358c-3.492-.958-5.881-4.067-5.257-6.84l9.85-43.521s.945-13.405 15.18-5.787c6.072 3.22 4.549 6.229 4.549 6.229z" fill="#8AA5FF"/><path d="M199.136 81.022h56.116c3.089-.002 6.05-1.15 8.234-3.195 2.183-2.044 3.41-4.816 3.41-7.707V52.243c0-2.89-1.227-5.663-3.41-7.707-2.184-2.044-5.145-3.193-8.234-3.194h-56.116c-3.089 0-6.05 1.15-8.234 3.194-2.183 2.044-3.41 4.816-3.41 7.707v17.851a10.313 10.313 0 00.878 4.179 10.897 10.897 0 002.522 3.545 11.742 11.742 0 003.781 2.37c1.415.55 2.931.833 4.463.834z" fill="#E6F2FF"/><path d="M227.499 105.602h56.122c3.089-.001 6.05-1.15 8.234-3.195 2.183-2.044 3.41-4.816 3.41-7.706V76.85c0-2.89-1.227-5.663-3.41-7.707-2.184-2.044-5.145-3.193-8.234-3.195h-56.122c-1.529 0-3.043.284-4.455.832a11.72 11.72 0 00-3.776 2.363 10.865 10.865 0 00-2.522 3.536 10.295 10.295 0 00-.885 4.17v17.852a10.298 10.298 0 00.883 4.17 10.878 10.878 0 002.522 3.538 11.726 11.726 0 003.777 2.363c1.413.548 2.927.83 4.456.83z" fill="#A8D6FF"/><path d="M47.148 325.753c26.043 0 47.155-.7 47.155-1.579 0-.878-21.112-1.578-47.154-1.578-26.043 0-47.149.731-47.149 1.594 0 .863 21.112 1.563 47.148 1.563z" fill="#88BCEB"/><path d="M68.996 148.544l-3.43 83.701c-.207 5.261 3.672 9.107 8.749 8.686 5.077-.421 9.485-4.898 10.008-10.149.421-4.209 1.714-16.004 2.636-19.908 1.44-6.124 6.657-42.59 9.67-64.008 1.198-8.529-4.424-15.337-12.295-14.921-8.006.416-15.034 8.002-15.338 16.599z" fill="#4F71DD"/><path d="M61.002 300.983c3.772-18.841 1.186-43.668 4.43-70.453.512-4.977 5.257-9.107 10.458-9.107 5.004 0 8.872 4.95 8.31 9.738-3.56 30.252-11.318 53.044-14.118 69.974-.562 3.368-9.457 3.489-9.08-.152zM42.009 123.59l9.153-19.029h35.325l7.23 19.203c2.332 4.101 3.55 8.676 3.548 13.321 0 15.479-9.3 21.745-25.553 21.745-16.255 0-33.96-4.735-33.318-21.745.163-4.893 1.299-9.496 3.615-13.495z" fill="#4F71DD"/><path d="M72.92 306.854l4.83 10.46c-2.4 6.003-4.003 5.098-9.754.484-1.687-1.963-2.811-5.956-7.05-20.219 0 0 3.884-.847 3.89-.847 4.24-.453 4.509 1.673 8.085 10.122z" fill="#4F71DD"/><path d="M59.158 323.038l-1.861-12.19 4.442.684-.934 11.506h-1.647z" fill="#002DA0"/><path d="M57.297 310.858c-.983-12.627 3.644-13.279 3.644-13.279s1.124-.9 3.525 7.576c0 0 3.761 12.101 13.493 10.296l6.545 2.704c.613.318 1.142.76 1.55 1.293a4.26 4.26 0 01.805 1.791c.17.926 0 1.783-1.163 1.783H70.56c-2.39 0-4.188-1.699-4.823-4.64-.293-1.368-1.62-3.047-2.812-4.42-1.192-1.373-5.628-3.104-5.628-3.104z" fill="#0048BE"/><path d="M96.855 59.714l24.024 44.047c.419.791.524 1.697.294 2.555a3.723 3.723 0 01-1.548 2.122l-.962.652a5.67 5.67 0 01-1.992.871 5.883 5.883 0 01-2.197.07 5.73 5.73 0 01-2.05-.742 5.351 5.351 0 01-1.576-1.435l-26.722-38.07s-9.35-10.276 3.856-14.732c5.628-1.915 8.873 4.662 8.873 4.662z" fill="#FEB89E"/><path d="M45.423 73.067h42.37c5.262 0 9.523-4.367 9.523-9.75 0-5.382-4.261-9.754-9.524-9.754l-20.707-2.962-21.662 2.962c-5.263 0-9.525 4.367-9.525 9.755 0 5.387 4.268 9.749 9.525 9.749z" fill="#FEB89E"/><path d="M54.181 58.814a53.332 53.332 0 0031.62 0s11.025 7.071 8.968 21.66a12.611 12.611 0 01-1.653 4.963 13.467 13.467 0 01-3.57 3.981L85.8 104.576H51.162s-7.039-20.14-7.87-23.812c-3.16-14.1 10.89-21.95 10.89-21.95z" fill="#FEB89E"/><path d="M35.24 62.913L24.177 112.51a3.525 3.525 0 00.41 2.565 3.927 3.927 0 002.098 1.697l1.124.384a5.92 5.92 0 002.204.325 5.857 5.857 0 002.162-.513 5.536 5.536 0 001.773-1.267 5.12 5.12 0 001.097-1.818l15.293-44.436s6.184-12.548-7.804-13.469c-5.988-.384-7.292 6.934-7.292 6.934z" fill="#FEB89E"/><path d="M57.432 17.093s-6.184 8.828-2.249 14.142c3.936 5.314 6.061 10.901 9.699 8.076 3.637-2.825.9-28.037.9-28.037l-8.35 5.819z" fill="#223A7A"/><path d="M65.734 59.45l1.052.064c3.233.19 10.457-2.105 10.682-5.43-6.123-1.904-4.346-13.027-2.811-23.675.225-3.304-2.249-6.166-5.465-6.361l-1.051-.063c-3.233-.195-7.349 3.41-7.573 6.718-.889 9.881.213 18.352-5.668 21.245-.202 3.294 7.607 7.33 10.834 7.503z" fill="#FEB89E"/><path d="M73.264 42.162a10.523 10.523 0 01-1.653-.136c-.444-.122-4.459-2.216-4.459-2.216s1.265 6.93 6.123 7.214c.006 0-.112-3.794-.011-4.862z" fill="#F19776"/><path d="M76.958 42.004c2.94-2.167 6.399-7.192 6.106-12.227v-8.686c-.37-6.471-5.656-11.517-11.74-11.212l-.606.032c-6.061.305-10.75 5.871-10.379 12.322l.602 10.522c.292 5.077 7.567 7.713 10.682 9.539.866.479 4.498.32 5.335-.29z" fill="#FEB89E"/><path d="M86.814 17.108c.279.64.326 1.346.134 2.013a3.154 3.154 0 01-1.195 1.677 3.525 3.525 0 01-2.036.659 3.53 3.53 0 01-2.047-.629c-1.27-.837-2.772-1.315-4.031-1.889-7.31-3.446-14.545.663-14.31-1.7l5.825-8.633s5.51-4.372 12.156.995c2.456 2.049 4.345 4.625 5.504 7.507z" fill="#008FFF"/><path d="M72.134 7.223S63.374 2.519 55.1 9.774c-8.276 7.255-.63 20.214-.63 20.214s11.565-4.677 11.357-10.56c-.208-5.881 7.978-9.38 7.978-9.38l-1.67-2.825z" fill="#008FFF"/><path d="M57.346 30.261c.686 1.852 2.25 2.894 3.43 2.315 1.18-.578 1.636-2.54.95-4.398-.686-1.857-2.249-2.894-3.43-2.315-1.18.579-1.63 2.547-.95 4.398z" fill="#FEB89E"/><path d="M87.202 103.614s11.553 23.896 12.245 29.147c.692 5.25-2.39 27.016-2.654 30.147-.264 3.13-11.402 67.006-11.402 76.382 0 9.375-10.575 44.81-9.743 52.086 0 0 1.81 3.683-1.124 4.44-2.935.758-16.007-.92-15.867-2.746.14-1.826 1.687-3.125 1.687-4.035 0-.91 4.357-41.232 4.357-41.232l.86-115.853 4.661-27.358 16.98-.978z" fill="#76BFF9"/><path d="M68.839 147.539l3.935 82.249c.242 5.166-3.603 9.375-8.675 9.502-5.071.126-9.485-3.836-10.036-8.944-.444-4.136-1.804-15.616-2.749-19.367-1.478-5.908-6.898-41.353-10.036-62.166-1.253-8.292 4.301-15.595 12.178-16.026 7.973-.447 15.029 6.324 15.383 14.752z" fill="#4F71DD"/><path d="M25.419 294.264c10.564-15.552 17.834-39.327 30.995-62.34 1.162-2.082 3.157-3.649 5.55-4.358a10.084 10.084 0 017.219.575c4.436 2.168 5.965 8.355 3.626 12.48-14.78 26.048-30.41 43.484-39.395 57.689-1.8 2.852-9.732-.873-7.995-4.046z" fill="#4F71DD"/><path d="M29.028 304.676l-5.622 10.091c-6.494 2.036-6.747.305-6.544-6.781.562-2.478 3.17-5.788 12.335-17.889 0 0 3.148 2.3 3.154 2.3 3.036 2.825 1.44 4.361-3.323 12.279z" fill="#4F71DD"/><path d="M6.928 304.86l8.945-9.028 2.249 3.683-10.12 6.566-1.074-1.221z" fill="#002DA0"/><path d="M15.871 295.832c9.845-8.66 13.314-5.708 13.314-5.708s1.44.231-4.065 7.329c0 0-7.658 10.343-.068 16.272l1.873 6.467a4.154 4.154 0 01-.092 1.955 4.344 4.344 0 01-.982 1.727c-.664.705-1.473 1.126-2.21.269l-9.513-11.007c-1.5-1.736-1.225-4.114.81-6.429.956-1.052 1.512-3.099 1.889-4.846.377-1.746-.956-6.029-.956-6.029z" fill="#0048BE"/><path d="M70.216 104.555H49.852s-9.63 15.694-11.497 19.867c-1.867 4.172-2.93 17.919.562 24.811 3.491 6.893 9.743 56.027 10.615 62.346.871 6.319 3.098 16.573 2.361 19.351-.736 2.778-3.902 3.472-3.525 6.95.377 3.477-15.405 41.006-17.075 42.048-1.67 1.041-4.616 3.225-2.783 4.692 1.833 1.468 5.752 8.687 11.132 6.603 5.38-2.083 1.496-5.997 3.722-7.081 2.227-1.084 24.018-30.973 26.847-34.793 2.828-3.819 10.12-8.165 8.894-25.89-1.226-17.725-8.889-118.904-8.889-118.904z" fill="#76BFF9"/><path d="M78.246 211.579l-4.965-76.461" stroke="#208DE3" stroke-width="3.8" stroke-linecap="round" stroke-linejoin="round"/><path d="M87.067 53.458s6.797 13.822 7.64 19.609c.844 5.787 1.434 10.39-4.57 15.847 0 0 .82 2.283-.433 3.604-1.254 1.32 1.63 10.333-1.653 12.884-3.284 2.552-7.388 3.946-13.15 4.793-5.763.847-16.924-.894-21.31-1.226-4.385-.331-7.87-1.252-7.173-1.999.697-.747-.416-4.524 1.95-5.303l-3.75-16.436s11.583-17.257-.471-31.567c0 0 8.433-2.337 10.49-2.631 2.058-.295 2.17-6.524 3.548-6.582 1.378-.058 7.377 6.387 16.305 3.52 0 0 .973-.453.905 1.173-.067 1.626.208 2.236 2.103 2.447 1.895.21 9.569 1.867 9.569 1.867z" fill="#76BFF9"/><path d="M71.893 107.854c-16.564 3.683-30.788-1.957-43.433.71-2.383.526-4.357 2.263-4.362 4.299v3.488c0 1.72 4.233 3.03 6.263 2.788 9.8.363 22.489.526 40.953-5.34 1.686-.221 3.654-2.173 3.587-3.609-.062-1.347-1.462-2.683-3.008-2.336z" fill="#FEB89E"/><path d="M95.63 103.077a.398.398 0 01-.108.485.447.447 0 01-.162.088c-1.327.453-2.412 1.052-3.317 1.379-3.256 1.283-4.004 1.888-4.004 1.888s-.275.058-.292.09a.88.88 0 01.401.171.809.809 0 01.258.335.757.757 0 01-.13.788.872.872 0 01-.276.4 5.54 5.54 0 01-.264.295.848.848 0 01.284.275.79.79 0 01.12.366v.127c-.06.242-.185.465-.363.649a1.575 1.575 0 01-.654.403c.337.358-.068.879-.456 1.231a5.8 5.8 0 01-1.607.852c-1.507.621-3.419 1.189-3.419 1.189l-8.832-.21a3.828 3.828 0 01-2.415-.785 3.39 3.39 0 01-1.28-2.072l-.145-.789a3.254 3.254 0 01.325-2.073 3.564 3.564 0 011.547-1.515c3.311-1.7 8.248-3.573 8.27-3.578.256-.125.52-.232.793-.321l1.72-.457c1.249-.385 5.162-2.51 5.06-2.457 0 0 .934.741-.056 1.883-1.192 1.373-4.335 3.188-4.267 3.225.77.458 3.778-.373 6.072-1.005 1.023-.284 3.722-.994 4.144-1.11 2.153-.615 2.839-.158 3.052.253z" fill="#FEB89E"/><path d="M88.018 106.865l-3.284.989.034.084 3.284-.989-.034-.084zM87.647 108.969l-3.284.989v.09l3.284-.989v-.09zM86.86 111.168l-3.284.99v.089l3.284-.994v-.085z" fill="#FEB89E"/><path d="M89.225 113.72l35.982-1.773 10.469-44.81-35.983 1.768-10.468 44.815z" fill="#fff"/><path d="M127.002 91.586l6.241-.205c.283-.012.566.029.833.12.266.09.511.229.72.408.209.18.378.396.498.637.119.24.186.5.198.766v.142c.009.264-.038.527-.138.773a1.98 1.98 0 01-.443.665 2.16 2.16 0 01-.683.455 2.267 2.267 0 01-.816.175l-4.903-1.21c-2.541-.858-2.693-2.689-1.507-2.726z" fill="#FEB89E"/><path d="M128.952 94.022l4.273-.163c.268-.011.535.028.786.117.251.088.479.223.672.397.193.174.347.382.451.613.104.231.157.48.155.73v.142c.039 1.11-.917 1.647-2.007 1.726l-4.425-1.305c-2.654-.72-1.878-2.578.095-2.257zM127.21 89.113l6.24-.205c.286-.009.571.035.839.129s.513.236.722.419c.209.183.377.402.495.646.118.243.184.506.193.774v.142c.045 1.126-.781 1.452-1.967 1.494l-5.87-.794c-3.008-.621-1.844-2.563-.652-2.605z" fill="#FEB89E"/><path d="M126.822 87.22l6.297-2.005c.271-.023.546.004.806.08.261.077.502.201.711.366.209.164.382.365.507.592.126.227.202.475.224.73v.131a1.87 1.87 0 01-.62 1.354 2.14 2.14 0 01-1.46.55l-6.241.206c-1.568.216-2.181-1.079-.224-2.005z" fill="#FEB89E"/><path d="M75.192 52.611s-7.759 4.004-13.881 0" stroke="#208DE3" stroke-width="3.8" stroke-linecap="round" stroke-linejoin="round"/><path d="M68.03 8.259s2.452-9.544-8.264-8.113c-10.716 1.431-16.839 16.81-5.29 18.372C66.023 20.081 68.03 8.26 68.03 8.26z" fill="#008FFF"/><path d="M59.771 35.249a1.947 1.947 0 001.027-.294c.304-.19.541-.46.681-.777.14-.316.178-.664.107-1a1.703 1.703 0 00-.503-.887 1.896 1.896 0 00-.944-.479 1.975 1.975 0 00-1.07.091c-.338.129-.63.348-.836.63a1.66 1.66 0 00-.189 1.632c.092.213.229.408.402.572.173.163.38.293.608.38.227.089.471.133.717.132z" fill="#fff"/><path d="M361.743 174.287c14.163-4.556 29.826-7.365 37.849-11.427 1.917-.973 2.508-3.467 1.305-5.629l-2.052-3.683c-1.012-1.821-3.143-2.673-4.796-1.915l-35.308 16.199c-1.372.658-1.934 3.209-1.029 4.735.849 1.394 2.676 2.168 4.031 1.72z" fill="#FEB89E"/><path d="M358.702 167.158l-12.436-.3a2.469 2.469 0 00-1.153.248c-1.49.731-5.864 2.878-10.48 5.229-.562.29-1.282 2.268.95 1.552-.49.303-.871.738-1.094 1.246a2.578 2.578 0 00-.154 1.606c.045.242.085.474.135.705.04.312.15.613.323.883.173.27.404.503.68.684.275.18.588.305.918.365.33.06.67.054.997-.017 3.998-1.094 11.846-3.157 13.342-2.767 4.498 1.115 8.911-.868 9.715-1.226 0 0 2.845-1.994 2.249-4.809l-.039-.189a3.749 3.749 0 00-1.351-2.279 4.233 4.233 0 00-2.602-.931z" fill="#FEB89E"/><path d="M360.95 170.647h-60.108v3.572h60.108v-3.572z" fill="#fff"/><path d="M316.141 174.219h-68.958l-20.802-43.415h67.372c.474-.004.94.123 1.339.363s.715.583.91.989l20.139 42.063z" fill="#fff"/><path d="M313.465 174.219h-68.957l-19.847-41.416a1.337 1.337 0 01.112-1.351c.137-.199.326-.362.548-.475.222-.113.47-.173.723-.174h65.635c.292 0 .579.08.825.229.245.15.439.363.558.613l20.403 42.574z" fill="#F0F3FA"/><path d="M270.994 155.131c.995-2.378-1.068-5.356-4.605-6.65-3.536-1.294-7.208-.421-8.197 1.957-.99 2.378 1.063 5.356 4.599 6.65 3.536 1.295 7.225.421 8.203-1.957z" fill="#fff"/><path d="M358.701 325.784a3.259 3.259 0 01-1.765-1.722 2.969 2.969 0 01.028-2.387l60.383-143.352c.147-.381.374-.731.667-1.029a3.244 3.244 0 011.041-.707 3.472 3.472 0 012.52-.074 3.255 3.255 0 011.767 1.725 2.965 2.965 0 01-.03 2.389l-60.4 143.347c-.147.38-.372.729-.664 1.026a3.244 3.244 0 01-1.036.705 3.433 3.433 0 01-1.247.276 3.43 3.43 0 01-1.264-.197zM150.953 325.784a3.259 3.259 0 01-1.765-1.722 2.969 2.969 0 01.028-2.387l60.405-143.352c.147-.381.374-.731.667-1.029a3.255 3.255 0 011.041-.707 3.442 3.442 0 012.52-.074 3.263 3.263 0 011.765 1.726 2.971 2.971 0 01-.033 2.388L155.175 323.98c-.147.38-.374.728-.667 1.025a3.256 3.256 0 01-1.04.705 3.447 3.447 0 01-2.515.074z" fill="#88BCEB"/><path d="M386.774 149.854s-2.671.463-1.069 2.662c1.603 2.2 9.957 4.441 10.177 8.871.219 4.43 6.342 3.646 7.039 2.215.697-1.431 4.312-4.825 4.869-7.95.556-3.125 5.847-14.584 6.96-19.219 1.113-4.635 5.707-19.877 5.291-20.919-.416-1.042 2.468-6.724-1.344-11.311-3.812-4.588-22.815-9.066-22.815-9.066l-4.234 19.467-4.874 35.25z" fill="#fff"/><path d="M391.277 143.667s3.261-19.151 5.42-24.102M348.582 134.434s3.267-19.146 5.42-24.097" stroke="#F0F3FA" stroke-width="10" stroke-linecap="round" stroke-linejoin="round"/><path d="M350.431 98.536s-6.989 1.579-12.785 16.063c-7.309 18.172-13.674 29.068-13.674 29.068s-4.84.642-5.256 3.383c-.416 2.741 4.672 2.631 5.256 6.382.585 3.751 4.065 7.56 6.016 7.303 1.951-.258 3.632-1.026 4.043-2.82.41-1.795 4.306-1.61 4.025-4.209-.281-2.599 12.369-22.098 12.369-22.098l.006-33.072z" fill="#fff"/><path d="M397.439 164.149s3.531 1.92 4.785.526 1.855-3.683 3.373-4.661c1.518-.979 1.856-1.773 1.344-3.383M323.547 143.741s3.868 1.962 4.908 4.209" stroke="#F0F3FA" stroke-width="10" stroke-linecap="round" stroke-linejoin="round"/><path d="M445.014 180.985H193.063a2.06 2.06 0 01-1.398-.544 1.796 1.796 0 01-.581-1.308v-3.036c0-.491.208-.963.579-1.311a2.056 2.056 0 011.4-.546h251.951a2.054 2.054 0 011.4.546c.371.348.579.82.579 1.311v3.036c-.001.491-.21.961-.581 1.308a2.058 2.058 0 01-1.398.544z" fill="#88BCEB"/><path d="M62.772 93.686s-12.369 1.283-16.237-8.476" stroke="#208DE3" stroke-width="3.8" stroke-linecap="round" stroke-linejoin="round"/><path d="M366.19 67.106c1.208-1.431 3.497-1.726 5.273-1.205.321.095.371-.79.113-.868-1.929-.563-4.279-.263-5.622 1.294-.169.2 0 1.052.213.779h.023zM360.607 66.943c-1.299-.569-2.715-.626-3.874.252-.208.163-.084.926.102.784a3.512 3.512 0 013.671-.253c.264.111.343-.678.101-.783z" fill="#F70"/><path d="M68.232 25.379a4.153 4.153 0 011.686-1.258c1.125-.4 2.435.037 3.374.648.376.231.95-.668.562-.91-1.124-.69-2.586-1.137-3.88-.658a5.648 5.648 0 00-2.17 1.636c-.365.416-.061 1.09.41.526l.018.016zM79.353 24.727c.748-.9 2.57-1.579 3.526-.6.27.268.404-.59.213-.779-1.124-1.105-3.064-.463-3.935.6-.169.2 0 1.052.213.779h-.017z" fill="#223A7A"/><path d="M71.403 27.741c.42 0 .76-.523.76-1.168 0-.645-.34-1.168-.76-1.168-.419 0-.759.523-.759 1.168 0 .645.34 1.168.76 1.168zM81.023 27.152c.37 0 .669-.462.669-1.031 0-.57-.3-1.031-.67-1.031-.369 0-.669.461-.669 1.03 0 .57.3 1.032.67 1.032z" fill="#00001E"/><path d="M359.146 70.904c.441 0 .798-.49.798-1.094 0-.604-.357-1.094-.798-1.094-.441 0-.798.49-.798 1.094 0 .605.357 1.094.798 1.094zM368.576 69.689c.493 0 .894-.523.894-1.168 0-.645-.401-1.168-.894-1.168-.494 0-.894.523-.894 1.168 0 .645.4 1.168.894 1.168z" fill="#000028"/></svg>